<svg xmlns="http://www.w3.org/2000/svg" xmlns:xlink="http://www.w3.org/1999/xlink" width="612" zoomAndPan="magnify" viewBox="0 0 458.88 458.999989" height="612" preserveAspectRatio="xMidYMid meet" version="1.0"><defs><clipPath id="5a7d89289a"><path d="M 79.496094 79.558594 L 379.417969 79.558594 L 379.417969 379.480469 L 79.496094 379.480469 Z M 79.496094 79.558594 " clip-rule="nonzero"/></clipPath></defs><g clip-path="url(#5a7d89289a)"><path fill="#000000" d="M 229.433594 79.558594 C 270.816406 79.558594 308.363281 96.410156 335.410156 123.457031 C 362.578125 150.628906 379.3125 188.050781 379.3125 229.433594 C 379.3125 270.9375 362.578125 308.363281 335.410156 335.53125 C 308.363281 362.578125 270.816406 379.433594 229.433594 379.433594 C 188.050781 379.433594 150.507812 362.578125 123.457031 335.53125 C 96.289062 308.363281 79.558594 270.9375 79.558594 229.433594 C 79.558594 188.050781 96.289062 150.628906 123.457031 123.457031 C 150.507812 96.410156 188.050781 79.558594 229.433594 79.558594 Z M 127.535156 196.929688 C 130.835938 200.226562 135.394531 202.265625 140.492188 202.265625 L 140.613281 202.265625 C 145.589844 202.265625 150.148438 200.226562 153.566406 196.929688 C 156.863281 193.628906 158.902344 188.953125 158.902344 183.972656 C 158.902344 178.875 156.863281 174.316406 153.566406 171.019531 C 150.148438 167.71875 145.589844 165.5625 140.492188 165.5625 C 135.511719 165.5625 130.835938 167.71875 127.535156 171.019531 C 124.238281 174.316406 122.199219 178.875 122.199219 183.972656 C 122.199219 188.953125 124.238281 193.628906 127.535156 196.929688 Z M 119.378906 162.800781 C 124.839844 157.34375 132.335938 154.046875 140.550781 154.046875 C 148.828125 154.046875 156.386719 157.34375 161.722656 162.800781 C 167.179688 168.261719 170.480469 175.636719 170.480469 183.972656 C 170.480469 192.308594 167.179688 199.6875 161.722656 205.144531 C 161.484375 205.382812 161.242188 205.625 161.0625 205.804688 C 170.058594 208.863281 178.035156 214.019531 184.574219 220.5 L 185.054688 221.039062 L 185.53125 220.5 C 192.128906 214.019531 200.105469 208.921875 209.042969 205.804688 C 208.804688 205.5625 208.5625 205.324219 208.382812 205.144531 C 202.925781 199.6875 199.625 192.308594 199.625 183.972656 C 199.625 175.636719 202.925781 168.261719 208.382812 162.800781 C 213.722656 157.34375 221.21875 154.046875 229.554688 154.046875 C 237.769531 154.046875 245.269531 157.34375 250.726562 162.800781 C 256.0625 168.261719 259.480469 175.636719 259.480469 183.972656 C 259.480469 192.308594 256.0625 199.6875 250.726562 205.144531 C 250.484375 205.382812 250.246094 205.625 250.066406 205.804688 C 258.941406 208.863281 267.039062 214.019531 273.515625 220.5 L 274.054688 221.039062 L 274.535156 220.5 C 281.011719 214.019531 289.109375 208.921875 297.984375 205.804688 C 297.746094 205.5625 297.507812 205.324219 297.324219 205.144531 C 291.988281 199.6875 288.570312 192.191406 288.570312 183.972656 C 288.570312 175.695312 291.988281 168.261719 297.324219 162.800781 C 302.785156 157.34375 310.28125 154.046875 318.496094 154.046875 C 326.773438 154.046875 334.332031 157.34375 339.667969 162.800781 C 345.125 168.261719 348.425781 175.636719 348.425781 183.972656 C 348.425781 192.308594 345.125 199.6875 339.667969 205.144531 C 339.429688 205.382812 339.1875 205.625 339.007812 205.804688 C 345.007812 207.84375 350.582031 210.902344 355.621094 214.5625 C 360.417969 218.097656 364.496094 222.175781 368.035156 226.855469 C 367.375 189.671875 352.023438 156.144531 327.554688 131.675781 C 302.542969 106.664062 267.9375 91.191406 229.734375 91.191406 C 191.53125 91.191406 156.683594 106.605469 131.554688 131.617188 C 107.085938 156.085938 91.730469 189.609375 91.070312 226.796875 C 94.609375 222.117188 98.808594 218.039062 103.488281 214.5 C 108.464844 210.84375 114.164062 207.785156 120.101562 205.746094 C 119.859375 205.503906 119.621094 205.265625 119.441406 205.085938 C 114.101562 199.625 110.683594 192.128906 110.683594 183.914062 C 110.625 175.636719 114.042969 168.261719 119.378906 162.800781 Z M 140.613281 213.839844 L 140.492188 213.839844 C 129.097656 213.839844 118.660156 217.621094 110.382812 223.855469 C 101.988281 229.972656 95.691406 238.730469 92.390625 248.746094 C 96.589844 279.214844 110.804688 306.621094 131.496094 327.3125 C 156.625 352.324219 191.171875 367.796875 229.433594 367.796875 C 267.699219 367.796875 302.242188 352.324219 327.253906 327.3125 C 348.066406 306.503906 362.160156 279.214844 366.476562 248.746094 C 363.179688 238.730469 356.820312 229.972656 348.484375 223.855469 C 340.089844 217.621094 329.710938 213.839844 318.378906 213.839844 L 318.257812 213.839844 C 304.28125 213.839844 291.628906 219.539062 282.570312 228.59375 C 282.09375 229.074219 281.671875 229.496094 281.191406 229.972656 C 287.789062 239.871094 291.628906 251.683594 291.628906 264.460938 C 291.628906 271.417969 290.367188 278.195312 288.210938 284.730469 C 285.929688 291.089844 282.632812 297.265625 278.433594 302.722656 L 278.3125 302.84375 L 278.3125 302.964844 L 278.195312 302.964844 L 278.074219 303.082031 C 277.535156 303.742188 276.695312 304.34375 275.914062 304.703125 L 275.554688 304.703125 L 275.433594 304.824219 L 275.195312 304.824219 L 275.074219 304.941406 L 274.835938 304.941406 C 273.457031 305.183594 272.078125 304.941406 270.878906 304.28125 L 270.757812 304.164062 L 270.636719 304.164062 L 270.636719 304.042969 L 270.515625 304.042969 L 270.398438 303.921875 L 270.277344 303.921875 L 270.277344 303.804688 L 270.15625 303.683594 L 270.039062 303.683594 L 270.039062 303.5625 C 269.675781 303.324219 269.496094 303.023438 269.257812 302.664062 C 265.058594 297.207031 261.761719 291.148438 259.601562 284.792969 C 257.324219 278.3125 256.183594 271.476562 256.183594 264.519531 C 256.183594 251.804688 259.960938 239.929688 266.558594 230.035156 C 266.078125 229.554688 265.777344 229.132812 265.300781 228.65625 C 256.0625 219.539062 243.46875 213.902344 229.613281 213.902344 L 229.375 213.902344 C 215.398438 213.902344 202.746094 219.597656 193.6875 228.65625 C 193.210938 229.132812 192.789062 229.554688 192.429688 230.035156 C 198.90625 239.929688 202.804688 251.746094 202.804688 264.519531 C 202.804688 271.476562 201.664062 278.253906 199.386719 284.792969 C 197.226562 291.148438 193.929688 297.207031 189.730469 302.664062 C 189.371094 303.144531 189.070312 303.445312 188.589844 303.804688 C 187.332031 304.824219 185.832031 305.183594 184.394531 305.0625 L 184.273438 304.941406 L 183.792969 304.941406 C 183.554688 304.824219 183.3125 304.824219 183.132812 304.703125 L 183.015625 304.703125 L 182.894531 304.582031 L 182.714844 304.582031 L 182.59375 304.464844 L 182.472656 304.464844 L 182.355469 304.34375 C 181.875 304.101562 181.453125 303.863281 181.09375 303.5625 L 180.976562 303.445312 C 180.734375 303.203125 180.496094 302.964844 180.316406 302.664062 C 176.117188 297.207031 172.816406 291.148438 170.660156 284.792969 C 168.378906 278.3125 167.242188 271.476562 167.242188 264.519531 C 167.242188 251.804688 171.078125 239.929688 177.675781 230.035156 C 177.195312 229.554688 176.777344 229.132812 176.296875 228.65625 C 167.242188 219.539062 154.585938 213.839844 140.613281 213.839844 Z M 229.433594 165.5 C 224.335938 165.5 219.777344 167.660156 216.480469 170.957031 C 213.179688 174.257812 211.023438 178.816406 211.023438 183.914062 C 211.023438 188.890625 213.179688 193.570312 216.480469 196.867188 C 219.777344 200.167969 224.335938 202.207031 229.316406 202.207031 L 229.554688 202.207031 C 234.53125 202.207031 239.089844 200.167969 242.390625 196.867188 C 245.6875 193.570312 247.726562 188.890625 247.726562 183.914062 C 247.726562 178.816406 245.6875 174.257812 242.390625 170.957031 C 239.089844 167.660156 234.414062 165.5 229.433594 165.5 Z M 273.875 288.691406 C 275.253906 286.289062 276.394531 283.710938 277.292969 280.953125 C 279.09375 275.734375 280.054688 270.15625 280.054688 264.460938 C 280.054688 255.703125 277.773438 247.425781 273.9375 240.230469 C 269.976562 247.367188 267.699219 255.703125 267.699219 264.460938 C 267.699219 270.15625 268.71875 275.734375 270.515625 280.953125 C 271.417969 283.652344 272.554688 286.289062 273.875 288.691406 Z M 184.992188 288.691406 C 186.371094 286.289062 187.511719 283.710938 188.410156 280.953125 C 190.210938 275.734375 191.171875 270.15625 191.171875 264.460938 C 191.171875 255.703125 189.011719 247.425781 185.054688 240.230469 C 181.09375 247.367188 178.933594 255.703125 178.933594 264.460938 C 178.933594 270.15625 179.835938 275.734375 181.695312 280.953125 C 182.472656 283.652344 183.613281 286.289062 184.992188 288.691406 Z M 318.257812 165.5 C 313.28125 165.5 308.601562 167.660156 305.300781 170.957031 C 302.003906 174.257812 299.964844 178.816406 299.964844 183.914062 C 299.964844 188.890625 302.003906 193.570312 305.300781 196.867188 C 308.601562 200.167969 313.28125 202.207031 318.257812 202.207031 L 318.378906 202.207031 C 323.355469 202.207031 327.914062 200.167969 331.332031 196.867188 C 334.628906 193.570312 336.667969 188.890625 336.667969 183.914062 C 336.667969 178.816406 334.628906 174.257812 331.332031 170.957031 C 327.914062 167.660156 323.355469 165.5 318.257812 165.5 Z M 318.257812 202.265625 Z M 318.257812 202.265625 " fill-opacity="1" fill-rule="nonzero"/></g></svg>