<svg xmlns="http://www.w3.org/2000/svg" xmlns:xlink="http://www.w3.org/1999/xlink" width="612" zoomAndPan="magnify" viewBox="0 0 458.88 458.999989" height="612" preserveAspectRatio="xMidYMid meet" version="1.0"><defs><clipPath id="52edda6726"><path d="M 79.574219 60.246094 L 379.40625 60.246094 L 379.40625 398.410156 L 79.574219 398.410156 Z M 79.574219 60.246094 " clip-rule="nonzero"/></clipPath></defs><g clip-path="url(#52edda6726)"><path fill="#000000" d="M 216.132812 197.300781 C 216.132812 197.300781 194.734375 194.253906 197.441406 208.339844 C 197.441406 208.339844 200.082031 202.988281 206.246094 201.835938 C 206.246094 201.835938 199.746094 205.289062 198.59375 209.082031 C 208.886719 216.734375 209.632812 202.648438 216.132812 197.300781 Z M 247.414062 60.246094 C 289.804688 60.246094 328.738281 76.296875 358.128906 102.230469 C 331.042969 80.832031 297.050781 68.238281 259.671875 68.238281 C 227.980469 68.238281 198.59375 77.378906 173.8125 93.429688 C 184.847656 93.429688 204.757812 94.171875 220.398438 100.265625 C 228.050781 103.3125 238.34375 101.824219 250.53125 99.523438 C 253.171875 98.777344 255.878906 98.371094 258.519531 97.625 C 280.664062 93.023438 307.003906 87.332031 333.683594 96.882812 C 334.835938 97.289062 335.242188 98.03125 334.835938 99.183594 C 334.429688 99.929688 333.683594 100.335938 332.53125 99.929688 C 308.15625 91.53125 283.304688 96.136719 261.90625 100.742188 C 271.046875 101.890625 283.644531 104.195312 297.050781 108.730469 C 330.636719 116.382812 359.277344 106.835938 359.277344 106.429688 C 360.023438 106.429688 361.175781 106.835938 361.582031 107.578125 C 361.582031 108.730469 361.175781 109.476562 360.429688 109.882812 C 360.429688 109.882812 339.03125 117.128906 311.539062 114.488281 C 325.691406 121.324219 337.882812 131.6875 343.230469 146.175781 C 348.171875 151.933594 347.023438 165.273438 347.023438 165.273438 C 351.222656 154.574219 345.464844 145.027344 345.464844 145.027344 C 370.25 154.980469 344.3125 184.367188 344.3125 184.367188 C 342.757812 170.214844 323.730469 155.722656 340.117188 147.328125 C 333.617188 129.382812 314.925781 118.683594 296.574219 112.183594 C 296.167969 112.183594 296.167969 112.183594 296.167969 112.183594 C 295.761719 112.183594 295.761719 111.777344 295.425781 111.777344 C 274.027344 104.53125 253.035156 102.976562 250.734375 102.976562 C 238.140625 105.277344 227.441406 106.765625 219.042969 103.71875 C 200.691406 96.476562 175.910156 96.882812 168.257812 96.882812 C 154.917969 106.429688 143.070312 117.464844 133.113281 130.0625 C 142.867188 125.929688 157.355469 120.582031 174.894531 120.582031 C 179.5 118.277344 187.894531 120.582031 187.894531 120.582031 C 181.394531 116.382812 174.148438 119.023438 174.148438 119.023438 C 184.101562 103.382812 200.894531 124.777344 200.894531 124.777344 C 191.347656 124.035156 179.160156 134.734375 175.300781 124.035156 C 153.15625 124.441406 136.769531 132.023438 128.714844 136.628906 C 120.722656 148.074219 114.222656 160.667969 109.28125 174.007812 C 121.875 164.054688 145.914062 148.410156 179.5 141.910156 C 213.828125 112.523438 254.660156 120.175781 255.066406 120.175781 C 255.8125 120.582031 256.625 121.324219 256.625 122.070312 C 256.21875 123.222656 255.472656 123.964844 254.324219 123.628906 C 254.324219 123.628906 218.433594 117.128906 186.742188 140.828125 C 207.734375 137.375 232.519531 138.1875 259.671875 145.769531 C 267.324219 145.027344 278.023438 153.015625 278.023438 153.015625 C 271.183594 143.875 260.078125 143.46875 260.078125 143.46875 C 281.476562 127.828125 292.917969 165.203125 292.917969 165.203125 C 279.917969 159.109375 257.4375 167.507812 259.332031 149.5625 C 229.539062 140.757812 203.199219 140.757812 181.054688 144.957031 C 180.648438 145.363281 180.648438 145.363281 180.3125 145.363281 C 142.933594 152.609375 117.335938 171.703125 107.382812 180.101562 C 102.441406 195.335938 99.730469 211.386719 99.730469 228.179688 C 99.730469 231.632812 100.136719 235.015625 100.136719 238.472656 C 102.441406 234.679688 105.082031 230.820312 107.789062 227.027344 C 107.789062 227.027344 107.789062 227.027344 107.789062 226.621094 C 122.28125 206.78125 142.121094 188.835938 162.367188 176.988281 C 176.113281 168.589844 189.859375 163.242188 202.453125 161.34375 C 215.046875 159.449219 226.492188 161.34375 234.886719 168.183594 C 239.492188 171.976562 242.878906 176.988281 245.179688 183.824219 C 250.9375 188.769531 252.019531 201.363281 252.019531 201.363281 C 254.324219 190.328125 247.078125 181.929688 247.078125 181.929688 C 273.011719 186.871094 253.171875 220.863281 253.171875 220.863281 C 248.972656 207.121094 227.574219 196.421875 242.132812 185.382812 C 239.832031 178.882812 236.785156 174.347656 232.585938 170.890625 C 224.933594 164.796875 214.640625 162.902344 202.792969 164.796875 C 190.941406 166.695312 177.601562 172.042969 164.261719 180.035156 C 145.914062 190.734375 128.375 205.96875 114.628906 223.574219 C 120.722656 220.933594 129.121094 217.816406 137.921875 214.433594 C 140.96875 213.28125 144.421875 212.128906 147.875 210.980469 C 176.113281 200.28125 208.210938 187.347656 213.152344 176.648438 C 213.558594 175.902344 214.304688 175.089844 215.453125 175.496094 C 216.199219 175.902344 216.605469 177.054688 216.199219 178.136719 C 212 188.089844 187.558594 199.128906 162.773438 209.082031 C 174.960938 208.339844 192.160156 209.488281 204.011719 219.035156 C 207.804688 220.1875 211.664062 225.875 211.664062 225.875 C 209.765625 219.78125 204.011719 217.886719 204.011719 217.886719 C 218.164062 213.28125 217.011719 234.679688 217.011719 234.679688 C 212.070312 229.734375 199.8125 229.734375 202.113281 222.085938 C 183.765625 206.847656 150.992188 213.6875 149.027344 214.433594 C 145.574219 215.582031 142.1875 216.734375 139.074219 217.886719 C 127.222656 222.492188 116.523438 226.28125 110.429688 229.328125 C 106.636719 234.273438 103.589844 239.621094 100.882812 244.972656 C 103.929688 274.765625 115.035156 301.851562 132.167969 324.332031 L 132.910156 323.179688 L 134.46875 322.03125 C 178.007812 287.699219 250.125 321.625 294.410156 339.972656 C 292.511719 341.125 286.417969 340.71875 284.863281 340.71875 C 278.023438 340.71875 270.710938 339.566406 263.464844 338.417969 C 256.21875 337.265625 248.972656 336.113281 241.726562 334.625 C 239.425781 333.878906 236.785156 333.472656 234.074219 332.726562 C 232.925781 332.726562 231.773438 332.320312 230.621094 331.984375 L 227.167969 330.832031 L 227.167969 334.625 C 227.167969 338.078125 230.214844 341.871094 232.113281 344.171875 C 239.765625 351.824219 252.359375 356.359375 262.246094 359.40625 C 277.140625 363.199219 296.980469 361.304688 312.21875 359.40625 C 324.8125 357.511719 337.40625 354.804688 350.003906 351.757812 C 354.945312 350.605469 359.550781 349.453125 364.492188 348.707031 C 367.132812 347.964844 370.25 347.152344 372.890625 346.8125 C 374.039062 346.40625 378.644531 346.066406 379.390625 346.8125 L 379.390625 347.21875 C 346.210938 380.398438 301.113281 398.75 254.1875 398.75 C 208.414062 398.75 164.871094 381.210938 132.03125 349.859375 C 131.625 349.859375 131.285156 349.453125 130.878906 349.113281 C 130.878906 348.707031 130.472656 348.707031 130.136719 348.371094 C 128.238281 346.472656 126.34375 344.171875 124.378906 342.277344 C 123.972656 342.277344 123.972656 342.277344 123.972656 341.871094 C 123.566406 341.464844 123.230469 341.125 122.414062 340.3125 C 122.007812 339.90625 121.265625 339.160156 120.859375 338.417969 C 95.128906 309.097656 79.484375 270.566406 79.484375 228.179688 C 79.484375 135.410156 154.648438 60.246094 247.414062 60.246094 Z M 298.945312 140.421875 C 298.945312 140.421875 305.445312 112.183594 285.945312 114.488281 C 285.945312 114.488281 292.785156 118.683594 293.597656 127.082031 C 293.597656 127.082031 289.804688 117.941406 284.792969 116.042969 C 273.417969 128.570312 292.445312 131.210938 298.945312 140.421875 Z M 256.964844 77.042969 C 256.964844 77.042969 228.320312 78.191406 235.566406 96.476562 C 235.566406 96.476562 237.867188 88.484375 245.519531 85.4375 C 245.519531 85.4375 237.867188 91.53125 237.125 97.289062 C 252.425781 104.53125 250.125 85.4375 256.964844 77.042969 Z M 157.761719 132.363281 C 157.761719 132.363281 136.363281 133.109375 141.714844 146.855469 C 141.714844 146.855469 143.273438 140.757812 148.960938 138.457031 C 148.960938 138.457031 143.203125 143.0625 142.867188 147.261719 C 154.308594 153.015625 152.414062 138.523438 157.761719 132.363281 Z M 148.214844 167.914062 C 148.214844 167.914062 127.628906 174.414062 136.363281 185.855469 C 136.363281 185.855469 136.363281 179.761719 141.308594 175.902344 C 141.308594 175.902344 137.109375 181.996094 137.855469 185.855469 C 150.109375 188.496094 144.761719 175.160156 148.214844 167.914062 Z M 174.894531 162.902344 C 174.894531 162.902344 164.941406 144.957031 155.800781 155.25 C 155.800781 155.25 161.554688 154.503906 165.753906 158.296875 C 165.753906 158.296875 159.253906 155.25 155.800781 156.738281 C 155.800781 169.0625 167.308594 161.007812 174.894531 162.902344 Z M 368.828125 135.070312 C 368.828125 135.070312 365.78125 108.324219 349.394531 115.976562 C 349.394531 115.976562 356.636719 117.871094 360.089844 124.777344 C 360.089844 124.777344 353.996094 117.941406 348.648438 117.941406 C 342.484375 132.363281 360.429688 128.976562 368.828125 135.070312 Z M 244.367188 140.015625 C 244.367188 140.015625 247.007812 122.476562 235.226562 124.777344 C 235.226562 124.777344 239.832031 127.082031 240.578125 132.023438 C 240.578125 132.023438 237.9375 126.675781 234.480469 125.523438 C 228.320312 133.921875 240.171875 134.664062 244.367188 140.015625 Z M 252.425781 167.914062 C 252.425781 167.914062 255.472656 146.515625 241.390625 149.5625 C 241.390625 149.5625 246.738281 152.203125 247.890625 158.367188 C 247.890625 158.367188 244.4375 151.527344 240.644531 150.375 C 232.925781 160.667969 247.078125 161.414062 252.425781 167.914062 Z M 192.09375 174.007812 C 192.09375 174.007812 171.507812 180.507812 180.242188 191.953125 C 180.242188 191.953125 180.242188 185.855469 185.1875 181.996094 C 185.1875 181.996094 180.988281 188.089844 181.734375 191.953125 C 193.988281 194.59375 188.300781 181.253906 192.09375 174.007812 Z M 192.09375 174.007812 " fill-opacity="1" fill-rule="nonzero"/></g></svg>