<svg xmlns="http://www.w3.org/2000/svg" xmlns:xlink="http://www.w3.org/1999/xlink" width="612" zoomAndPan="magnify" viewBox="0 0 458.88 458.999989" height="612" preserveAspectRatio="xMidYMid meet" version="1.0"><defs><clipPath id="0d142756aa"><path d="M 212 186 L 319 186 L 319 378.792969 L 212 378.792969 Z M 212 186 " clip-rule="nonzero"/></clipPath><clipPath id="0c06c2edbb"><path d="M 140 80.371094 L 247 80.371094 L 247 273 L 140 273 Z M 140 80.371094 " clip-rule="nonzero"/></clipPath></defs><path fill="#000000" d="M 136.957031 156.695312 L 108.71875 140.394531 C 79.554688 190.902344 100.058594 257.339844 150.570312 286.503906 C 179.699219 303.320312 213.507812 304.679688 242.507812 293.136719 C 219.832031 296.441406 195.929688 292.425781 174.542969 280.082031 C 129.210938 253.90625 119.210938 204.152344 136.957031 156.695312 " fill-opacity="1" fill-rule="nonzero"/><path fill="#000000" d="M 120.148438 273.191406 L 91.914062 289.492188 C 121.074219 340.003906 188.859375 355.464844 239.375 326.300781 C 268.5 309.484375 286.585938 280.886719 291.085938 250 C 282.609375 271.289062 267.179688 289.984375 245.796875 302.328125 C 200.460938 328.503906 152.375 312.285156 120.148438 273.191406 " fill-opacity="1" fill-rule="nonzero"/><g clip-path="url(#0d142756aa)"><path fill="#000000" d="M 212.632812 345.992188 L 212.632812 378.597656 C 270.957031 378.597656 318.238281 327.625 318.238281 269.296875 C 318.238281 235.664062 302.515625 205.703125 278.015625 186.363281 C 292.21875 204.347656 300.691406 227.054688 300.691406 251.75 C 300.691406 304.09375 262.605469 337.632812 212.632812 345.992188 " fill-opacity="1" fill-rule="nonzero"/></g><path fill="#000000" d="M 321.921875 302.300781 L 350.160156 318.605469 C 379.320312 268.09375 358.820312 201.65625 308.308594 172.492188 C 279.175781 155.675781 245.371094 154.3125 216.371094 165.859375 C 239.042969 162.554688 262.949219 166.574219 284.335938 178.917969 C 329.667969 205.089844 339.667969 254.84375 321.921875 302.300781 " fill-opacity="1" fill-rule="nonzero"/><path fill="#000000" d="M 338.726562 185.804688 L 366.96875 169.507812 C 337.804688 118.992188 270.019531 103.53125 219.503906 132.695312 C 190.378906 149.511719 172.292969 178.113281 167.792969 208.996094 C 176.269531 187.707031 191.699219 169.011719 213.082031 156.667969 C 258.414062 130.496094 306.503906 146.710938 338.726562 185.804688 " fill-opacity="1" fill-rule="nonzero"/><g clip-path="url(#0c06c2edbb)"><path fill="#000000" d="M 246.246094 113.007812 L 246.246094 80.402344 C 187.921875 80.402344 140.636719 131.371094 140.636719 189.699219 C 140.636719 223.335938 156.363281 253.292969 180.859375 272.636719 C 166.664062 254.652344 158.1875 231.941406 158.1875 207.246094 C 158.1875 154.902344 196.273438 121.363281 246.246094 113.007812 " fill-opacity="1" fill-rule="nonzero"/></g></svg>